<?xml version="1.0" encoding="UTF-8" standalone="no"?>
<svg
   enable-background="new 0 0 128 128"
   height="128px"
   id="Layer_1"
   version="1.1"
   viewBox="0 0 128 128"
   width="128px"
   xml:space="preserve"
   sodipodi:docname="728931_browser_earth_world_global_internet_icon.svg"
   inkscape:version="1.3.2 (091e20ef0f, 2023-11-25)"
   xmlns:inkscape="http://www.inkscape.org/namespaces/inkscape"
   xmlns:sodipodi="http://sodipodi.sourceforge.net/DTD/sodipodi-0.dtd"
   xmlns="http://www.w3.org/2000/svg"
   xmlns:svg="http://www.w3.org/2000/svg"><defs
     id="defs2" /><sodipodi:namedview
     id="namedview2"
     pagecolor="#505050"
     bordercolor="#eeeeee"
     borderopacity="1"
     inkscape:showpageshadow="0"
     inkscape:pageopacity="0"
     inkscape:pagecheckerboard="0"
     inkscape:deskcolor="#505050"
     inkscape:zoom="6.6669316"
     inkscape:cx="73.572076"
     inkscape:cy="60.972577"
     inkscape:window-width="1920"
     inkscape:window-height="1043"
     inkscape:window-x="2560"
     inkscape:window-y="0"
     inkscape:window-maximized="1"
     inkscape:current-layer="Layer_1" /><g
     id="g2"
     style="fill:#a6d5ea;fill-opacity:1"><g
       id="g1"
       style="fill:#a6d5ea;fill-opacity:1"><path
         d="M123.32,60c-2.922-9.492-16-17.43-33.969-21.352C85.43,20.68,77.492,7.602,68,4.68V4h-8v0.68    c-9.492,2.922-17.43,16-21.352,33.969C20.68,42.57,7.602,50.508,4.68,60H4v8h0.68c2.922,9.492,16,17.43,33.969,21.352    C42.57,107.32,50.508,120.398,60,123.32V124h8v-0.68c9.492-2.922,17.43-16,21.352-33.969C107.32,85.43,120.398,77.492,123.32,68    H124v-8H123.32z M13.477,68h22.617c0.141,4.414,0.484,8.695,1.039,12.797C24.922,77.648,16.641,72.656,13.477,68z M36.094,60    H13.477c3.164-4.656,11.445-9.648,23.656-12.797C36.578,51.305,36.234,55.586,36.094,60z M60,114.523    c-4.656-3.164-9.648-11.445-12.797-23.656c4.102,0.555,8.383,0.898,12.797,1.039V114.523z M60,83.906    c-5.195-0.164-10.047-0.648-14.523-1.383c-0.734-4.477-1.219-9.328-1.383-14.523H60V83.906z M60,60H44.094    c0.164-5.195,0.648-10.047,1.383-14.523c4.477-0.734,9.328-1.219,14.523-1.383V60z M60,36.094    c-4.414,0.141-8.695,0.484-12.797,1.039C50.352,24.922,55.344,16.641,60,13.477V36.094z M68,13.477    c4.656,3.164,9.648,11.445,12.797,23.656c-4.102-0.555-8.383-0.898-12.797-1.039V13.477z M68,114.523V91.906    c4.414-0.141,8.695-0.484,12.797-1.039C77.648,103.078,72.656,111.359,68,114.523z M82.523,82.523    c-4.477,0.734-9.328,1.219-14.523,1.383V68h15.906C83.742,73.195,83.258,78.047,82.523,82.523z M68,60V44.094    c5.195,0.164,10.047,0.648,14.523,1.383c0.734,4.477,1.219,9.328,1.383,14.523H68z M90.867,80.797    c0.555-4.102,0.898-8.383,1.039-12.797h22.617C111.359,72.656,103.078,77.648,90.867,80.797z M91.906,60    c-0.141-4.414-0.484-8.695-1.039-12.797c12.211,3.148,20.492,8.141,23.656,12.797H91.906z"
         fill="#B0BEC5"
         id="path1"
         style="fill:#a6d5ea;fill-opacity:1" /></g></g><path
     d="M64,12c28.672,0,52,23.328,52,52s-23.328,52-52,52S12,92.672,12,64S35.328,12,64,12 M64,4  C30.867,4,4,30.867,4,64s26.867,60,60,60s60-26.867,60-60S97.133,4,64,4L64,4z"
     fill="#546E7A"
     id="path2"
     style="fill:#4dabd5;fill-opacity:1" /></svg>
